# xmcd
#
# Track frame offsets: 
#        150
#        17758
#        37443
#        53080
#        69066
#        89727
#        104342
#        117318
#        134268
#        150149
#        167089
#        182340
#        200189
#        218838
#        234789
#
# Disc length: 3356 seconds
#
# Revision: 4
# Processed by: cddbd v1.5.1PL2 Copyright (c) Steve Scherf et al.
# Submitted via: ExactAudioCopy v0.95b3
#
DISCID=c70d1a0f
DTITLE=Сергей Трофимов - Ностальгия
DYEAR=2005
DGENRE=Blues
TTITLE0=20 лет
TTITLE1=2.45
TTITLE2=Не зря говорила тебе Мама
TTITLE3=Плюшевый мишка
TTITLE4=Ностальгия
TTITLE5=Сен-Женевьев
TTITLE6=Лета
TTITLE7=Эх, раз
TTITLE8=Поколение пепси
TTITLE9=Родина
TTITLE10=Навашино
TTITLE11=За друзей
TTITLE12=Красное, черное, ноль
TTITLE13=Никудышный ангел
TTITLE14=Весенний блюз
EXTD=by pankrusheff
EXTT0=
EXTT1=
EXTT2=
EXTT3=
EXTT4=
EXTT5=
EXTT6=
EXTT7=
EXTT8=
EXTT9=
EXTT10=
EXTT11=
EXTT12=
EXTT13=
EXTT14=
PLAYORDER=
